HIERARCHY
ROOT hips
{
	OFFSET -0.003675 0.299928 -0.021708
	CHANNELS 6 Xposition Yposition Zposition Xrotation Yrotation Zrotation
	JOINT LowerBack
	{
		OFFSET 0.000919 0.177588 0.009275
		CHANNELS 3 Xrotation Yrotation Zrotation
		JOINT spine
		{
			OFFSET 0.000919 0.177588 0.009275
			CHANNELS 3 Xrotation Yrotation Zrotation
			JOINT chest
			{
				OFFSET 0.000456 0.100015 0.004638
				CHANNELS 3 Xrotation Yrotation Zrotation
				JOINT neck
				{
					OFFSET 0.000456 0.100015 0.004638
					CHANNELS 3 Xrotation Yrotation Zrotation
					JOINT head
					{
						OFFSET 0.000924 0.155147 0.009274
						CHANNELS 6 Xposition Yposition Zposition Xrotation Yrotation Zrotation
						End Site
						{
							OFFSET 0.000000 0.153400 0.000000
						}
					}
				}
				JOINT shoulder.L
				{
					OFFSET 0.019937 0.078966 0.057518
					CHANNELS 6 Xposition Yposition Zposition Yrotation Xrotation Zrotation
					JOINT upper_arm.L
					{
						OFFSET 0.177024 -0.020465 -0.095062
						CHANNELS 6 Xposition Yposition Zposition Xrotation Yrotation Zrotation
						JOINT forearm.L
						{
							OFFSET 0.247100 -0.135500 -0.061800
							CHANNELS 3 Xrotation Yrotation Zrotation
							JOINT hand.L
							{
								OFFSET 0.217000 -0.143000 0.039300
								CHANNELS 3 Xrotation Yrotation Zrotation
								JOINT palm.01.L
								{
									OFFSET 0.021770 -0.038291 0.012954
									CHANNELS 6 Xposition Yposition Zposition Yrotation Xrotation Zrotation
									JOINT f_index.01.L
									{
										OFFSET 0.053215 -0.044137 0.008236
										CHANNELS 3 Xrotation Yrotation Zrotation
										JOINT f_index.02.L
										{
											OFFSET 0.036108 -0.024723 -0.010656
											CHANNELS 3 Xrotation Yrotation Zrotation
											JOINT f_index.03.L
											{
												OFFSET 0.021342 -0.014948 -0.010846
												CHANNELS 3 Xrotation Yrotation Zrotation
												End Site
												{
													OFFSET 0.015600 -0.009860 -0.013421
												}
											}
										}
									}
									JOINT thumb.01.L
									{
										OFFSET -0.009090 -0.002348 -0.024223
										CHANNELS 6 Xposition Yposition Zposition Xrotation Yrotation Zrotation
										JOINT thumb.02.L
										{
											OFFSET 0.019713 -0.035076 -0.011120
											CHANNELS 3 Xrotation Yrotation Zrotation
											JOINT thumb.03.L
											{
												OFFSET 0.024877 -0.021748 -0.005176
												CHANNELS 3 Xrotation Yrotation Zrotation
												End Site
												{
													OFFSET 0.016125 -0.013029 -0.001569
												}
											}
										}
									}
								}
								JOINT palm.02.L
								{
									OFFSET 0.032823 -0.025104 0.012281
									CHANNELS 6 Xposition Yposition Zposition Yrotation Xrotation Zrotation
									JOINT f_middle.01.L
									{
										OFFSET 0.055723 -0.038469 0.008037
										CHANNELS 3 Xrotation Yrotation Zrotation
										JOINT f_middle.02.L
										{
											OFFSET 0.038167 -0.027473 -0.015582
											CHANNELS 3 Xrotation Yrotation Zrotation
											JOINT f_middle.03.L
											{
												OFFSET 0.021707 -0.016587 -0.017037
												CHANNELS 3 Xrotation Yrotation Zrotation
												End Site
												{
													OFFSET 0.014112 -0.010584 -0.014294
												}
											}
										}
									}
								}
								JOINT palm.03.L
								{
									OFFSET 0.039230 -0.011402 0.008390
									CHANNELS 6 Xposition Yposition Zposition Yrotation Xrotation Zrotation
									JOINT f_ring.01.L
									{
										OFFSET 0.061796 -0.031470 0.007910
										CHANNELS 3 Xrotation Yrotation Zrotation
										JOINT f_ring.02.L
										{
											OFFSET 0.033092 -0.023401 -0.019127
											CHANNELS 3 Xrotation Yrotation Zrotation
											JOINT f_ring.03.L
											{
												OFFSET 0.021392 -0.015362 -0.017824
												CHANNELS 3 Xrotation Yrotation Zrotation
												End Site
												{
													OFFSET 0.008670 -0.007297 -0.014686
												}
											}
										}
									}
								}
								JOINT palm.04.L
								{
									OFFSET 0.043417 0.002450 0.002889
									CHANNELS 6 Xposition Yposition Zposition Yrotation Xrotation Zrotation
									JOINT f_pinky.01.L
									{
										OFFSET 0.069986 -0.026156 0.003627
										CHANNELS 3 Xrotation Yrotation Zrotation
										JOINT f_pinky.02.L
										{
											OFFSET 0.018520 -0.012813 -0.016429
											CHANNELS 3 Xrotation Yrotation Zrotation
											JOINT f_pinky.03.L
											{
												OFFSET 0.013822 -0.009796 -0.014947
												CHANNELS 3 Xrotation Yrotation Zrotation
												End Site
												{
													OFFSET 0.007238 -0.006103 -0.011657
												}
											}
										}
									}
								}
							}
						}
					}
				}
				JOINT shoulder.R
				{
					OFFSET -0.016662 0.078957 0.057696
					CHANNELS 6 Xposition Yposition Zposition Yrotation Xrotation Zrotation
					JOINT upper_arm.R
					{
						OFFSET -0.176972 -0.020537 -0.095144
						CHANNELS 6 Xposition Yposition Zposition Xrotation Yrotation Zrotation
						JOINT forearm.R
						{
							OFFSET -0.247100 -0.135500 -0.061800
							CHANNELS 3 Xrotation Yrotation Zrotation
							JOINT hand.R
							{
								OFFSET -0.217000 -0.143000 0.039300
								CHANNELS 3 Xrotation Yrotation Zrotation
								JOINT palm.01.R
								{
									OFFSET -0.021773 -0.038278 0.012988
									CHANNELS 6 Xposition Yposition Zposition Yrotation Xrotation Zrotation
									JOINT f_index.01.R
									{
										OFFSET -0.053212 -0.044139 0.008249
										CHANNELS 3 Xrotation Yrotation Zrotation
										JOINT f_index.02.R
										{
											OFFSET -0.036049 -0.024835 -0.010634
											CHANNELS 3 Xrotation Yrotation Zrotation
											JOINT f_index.03.R
											{
												OFFSET -0.021371 -0.014881 -0.010866
												CHANNELS 3 Xrotation Yrotation Zrotation
												End Site
												{
													OFFSET -0.015584 -0.009883 -0.013422
												}
											}
										}
									}
									JOINT thumb.01.R
									{
										OFFSET 0.009113 -0.002381 -0.024211
										CHANNELS 6 Xposition Yposition Zposition Xrotation Yrotation Zrotation
										JOINT thumb.02.R
										{
											OFFSET -0.019694 -0.035097 -0.011088
											CHANNELS 3 Xrotation Yrotation Zrotation
											JOINT thumb.03.R
											{
												OFFSET -0.024867 -0.021762 -0.005168
												CHANNELS 3 Xrotation Yrotation Zrotation
												End Site
												{
													OFFSET -0.016120 -0.013036 -0.001565
												}
											}
										}
									}
								}
								JOINT palm.02.R
								{
									OFFSET -0.032828 -0.025095 0.012286
									CHANNELS 6 Xposition Yposition Zposition Yrotation Xrotation Zrotation
									JOINT f_middle.01.R
									{
										OFFSET -0.055721 -0.038472 0.008040
										CHANNELS 3 Xrotation Yrotation Zrotation
										JOINT f_middle.02.R
										{
											OFFSET -0.038101 -0.027593 -0.015557
											CHANNELS 3 Xrotation Yrotation Zrotation
											JOINT f_middle.03.R
											{
												OFFSET -0.021730 -0.016530 -0.017054
												CHANNELS 3 Xrotation Yrotation Zrotation
												End Site
												{
													OFFSET -0.014096 -0.010608 -0.014293
												}
											}
										}
									}
								}
								JOINT palm.03.R
								{
									OFFSET -0.039192 -0.011488 0.008390
									CHANNELS 6 Xposition Yposition Zposition Yrotation Xrotation Zrotation
									JOINT f_ring.01.R
									{
										OFFSET -0.061839 -0.031387 0.007876
										CHANNELS 3 Xrotation Yrotation Zrotation
										JOINT f_ring.02.R
										{
											OFFSET -0.033068 -0.023437 -0.019125
											CHANNELS 3 Xrotation Yrotation Zrotation
											JOINT f_ring.03.R
											{
												OFFSET -0.021371 -0.015393 -0.017822
												CHANNELS 3 Xrotation Yrotation Zrotation
												End Site
												{
													OFFSET -0.008654 -0.007321 -0.014684
												}
											}
										}
									}
								}
								JOINT palm.04.R
								{
									OFFSET -0.043421 0.002443 0.002845
									CHANNELS 6 Xposition Yposition Zposition Yrotation Xrotation Zrotation
									JOINT f_pinky.01.R
									{
										OFFSET -0.069983 -0.026169 0.003599
										CHANNELS 3 Xrotation Yrotation Zrotation
										JOINT f_pinky.02.R
										{
											OFFSET -0.018501 -0.012842 -0.016428
											CHANNELS 3 Xrotation Yrotation Zrotation
											JOINT f_pinky.03.R
											{
												OFFSET -0.013806 -0.009821 -0.014946
												CHANNELS 3 Xrotation Yrotation Zrotation
												End Site
												{
													OFFSET -0.007226 -0.006121 -0.011655
												}
											}
										}
									}
								}
							}
						}
					}
				}
			}
		}
	}
	JOINT pelvis.L
	{
		OFFSET 0.000000 0.000000 0.000000
		CHANNELS 6 Xposition Yposition Zposition Xrotation Yrotation Zrotation
		JOINT thigh.L
		{
			OFFSET 0.101675 0.001054 -0.000000
			CHANNELS 3 Xrotation Yrotation Zrotation
			JOINT shin.L
			{
				OFFSET 0.000000 -0.534800 0.041000
				CHANNELS 3 Xrotation Yrotation Zrotation
				JOINT foot.L
				{
					OFFSET 0.000000 -0.452000 -0.044800
					CHANNELS 3 Xrotation Yrotation Zrotation
					JOINT toe.L
					{
						OFFSET -0.000000 -0.068500 0.109600
						CHANNELS 3 Xrotation Yrotation Zrotation
						End Site
						{
							OFFSET -0.000000 0.000000 0.067200
						}
					}
				}
				JOINT heel.L
				{
					OFFSET 0.000000 -0.452000 -0.044800
					CHANNELS 3 Xrotation Yrotation Zrotation
					JOINT heel.02.L
					{
						OFFSET -0.038000 -0.085200 0.016200
						CHANNELS 6 Xposition Yposition Zposition Xrotation Yrotation Zrotation
						End Site
						{
							OFFSET 0.080000 -0.000000 0.000000
						}
					}
				}
			}
		}
	}
	JOINT pelvis.R
	{
		OFFSET 0.000000 0.000000 0.000000
		CHANNELS 6 Xposition Yposition Zposition Xrotation Yrotation Zrotation
		JOINT thigh.R
		{
			OFFSET -0.094325 0.001054 0.000000
			CHANNELS 3 Xrotation Yrotation Zrotation
			JOINT shin.R
			{
				OFFSET 0.000000 -0.534800 0.041000
				CHANNELS 3 Xrotation Yrotation Zrotation
				JOINT foot.R
				{
					OFFSET 0.000000 -0.452000 -0.044800
					CHANNELS 3 Xrotation Yrotation Zrotation
					JOINT toe.R
					{
						OFFSET -0.000000 -0.068500 0.109600
						CHANNELS 3 Xrotation Yrotation Zrotation
						End Site
						{
							OFFSET -0.000000 0.000000 0.067200
						}
					}
				}
				JOINT heel.R
				{
					OFFSET 0.000000 -0.452000 -0.044800
					CHANNELS 3 Xrotation Yrotation Zrotation
					JOINT heel.02.R
					{
						OFFSET 0.038000 -0.085200 0.016200
						CHANNELS 6 Xposition Yposition Zposition Xrotation Yrotation Zrotation
						End Site
						{
							OFFSET -0.080000 0.000000 -0.000000
						}
					}
				}
			}
		}
	}
}
MOTION
Frames: 4
Frame Time: 0.041667
0.011094 0.288709 -0.028189 -8.187530 -22.681354 -30.987837 -0.000001 0.000001 -0.000001 -0.000001 0.000001 0.000002 -0.000000 0.000000 0.000002 -0.000001 0.000002 0.000001 0.000924 0.155148 0.009274 12.797261 -0.036638 21.526979 0.019937 0.078966 0.057518 -3.393381 5.095069 33.335766 0.177025 -0.020465 -0.095062 -22.122706 12.086124 -63.613411 -41.346950 21.692196 -100.134446 -0.000003 0.000001 0.000001 0.021770 -0.038291 0.012954 0.000000 0.000003 0.000005 -0.000002 -0.000000 0.000001 0.000003 -0.000004 0.000004 -0.000000 0.000001 -0.000000 -0.009090 -0.002348 -0.024223 -0.000003 0.000000 -0.000003 0.000002 0.000001 0.000003 0.000001 0.000003 -0.000002 0.032823 -0.025104 0.012281 0.000001 0.000002 0.000005 -0.000002 -0.000001 -0.000004 0.000001 -0.000001 0.000005 0.000001 0.000002 0.000004 0.039230 -0.011402 0.008390 -0.000001 0.000000 0.000006 0.000000 -0.000001 -0.000002 -0.000000 0.000001 0.000003 0.000000 -0.000000 0.000000 0.043417 0.002450 0.002889 -0.000002 0.000001 -0.000002 0.000001 -0.000003 -0.000003 -0.000003 -0.000003 0.000002 0.000001 -0.000001 -0.000001 -0.016662 0.078956 0.057696 -9.122198 5.534922 -28.861815 -0.176972 -0.020537 -0.095144 7.167180 -11.244505 67.757847 -46.025503 -25.269567 96.120685 0.000002 0.000001 -0.000000 -0.021773 -0.038278 0.012988 0.000001 -0.000004 -0.000003 -0.000000 0.000002 -0.000001 -0.000002 0.000001 -0.000008 -0.000003 0.000001 -0.000000 0.009113 -0.002381 -0.024211 0.000002 -0.000004 0.000002 -0.000002 -0.000004 -0.000005 -0.000000 -0.000001 -0.000003 -0.032828 -0.025095 0.012286 0.000000 -0.000004 0.000001 -0.000000 0.000003 0.000002 0.000001 0.000000 -0.000002 -0.000002 0.000002 -0.000003 -0.039192 -0.011488 0.008390 -0.000001 -0.000004 0.000005 -0.000000 0.000001 -0.000002 -0.000004 -0.000004 -0.000000 0.000003 0.000001 0.000000 -0.043421 0.002443 0.002845 -0.000001 -0.000003 0.000000 -0.000002 0.000003 0.000001 0.000001 -0.000001 -0.000000 0.000001 0.000007 -0.000000 0.000000 0.000000 0.000000 -1.429090 -0.042998 -0.470857 1.524819 1.909559 25.955124 42.955084 0.236460 -2.384364 -0.000005 -0.000002 0.000001 -0.000004 0.000001 0.000001 -0.000003 -0.000002 0.000000 -0.038000 -0.085200 0.016200 -0.000000 -0.000002 0.000001 0.000000 0.000000 0.000000 -1.399661 -0.042937 0.763337 -34.679633 -1.426815 -21.529245 57.423005 -1.657973 16.981061 -0.000002 0.000000 0.000002 -0.000001 0.000005 0.000003 0.000007 -0.000000 -0.000001 0.038000 -0.085200 0.016200 0.000002 -0.000005 0.000006 
0.008403 0.282306 -0.032160 -4.257221 -15.702820 -28.166100 -0.000001 0.000000 0.000000 -0.000001 -0.000000 0.000000 -0.000000 -0.000002 -0.000000 -0.000000 -0.000002 -0.000002 0.000924 0.155148 0.009274 6.456673 -0.033955 23.949512 0.019937 0.078966 0.057518 -6.458452 4.148671 32.632858 0.177025 -0.020465 -0.095062 -25.727596 14.395949 -67.046243 -37.482541 12.202813 -94.749948 -0.000001 0.000001 0.000003 0.021770 -0.038291 0.012954 0.000003 -0.000000 0.000001 -0.000001 -0.000001 0.000008 0.000000 0.000001 0.000005 0.000003 0.000002 0.000002 -0.009090 -0.002348 -0.024223 0.000002 -0.000002 0.000006 -0.000000 -0.000000 0.000001 -0.000003 -0.000001 0.000001 0.032823 -0.025104 0.012281 0.000002 0.000002 0.000005 -0.000000 -0.000001 -0.000004 0.000001 -0.000002 -0.000000 0.000000 -0.000002 0.000002 0.039230 -0.011402 0.008390 0.000000 0.000002 0.000004 -0.000004 0.000005 -0.000000 -0.000002 0.000005 0.000001 0.000003 -0.000004 0.000004 0.043417 0.002450 0.002889 0.000000 0.000001 -0.000000 -0.000003 0.000001 -0.000002 -0.000001 -0.000000 -0.000001 -0.000001 -0.000002 -0.000000 -0.016662 0.078956 0.057696 -9.770663 6.040320 -31.890689 -0.176972 -0.020537 -0.095144 8.607227 -11.764366 64.523923 -41.149701 -19.848832 98.129055 0.000000 -0.000000 0.000000 -0.021773 -0.038278 0.012988 -0.000004 -0.000002 0.000000 0.000002 0.000004 -0.000004 0.000001 -0.000003 -0.000004 0.000001 -0.000002 0.000001 0.009114 -0.002381 -0.024212 0.000004 -0.000001 -0.000003 0.000001 -0.000001 -0.000001 0.000001 -0.000001 -0.000003 -0.032828 -0.025095 0.012286 -0.000001 -0.000000 -0.000001 -0.000004 0.000000 0.000001 0.000002 0.000002 -0.000004 -0.000000 -0.000001 -0.000004 -0.039192 -0.011488 0.008390 -0.000002 -0.000000 -0.000000 0.000001 0.000003 -0.000002 0.000002 0.000001 0.000000 -0.000003 0.000000 0.000005 -0.043421 0.002443 0.002845 -0.000002 -0.000003 0.000004 -0.000007 -0.000001 -0.000001 -0.000003 -0.000002 -0.000002 -0.000003 0.000002 0.000003 -0.000000 0.000000 -0.000000 -1.511527 -0.249373 2.146394 -11.842748 1.759761 24.614538 52.842677 -0.329170 3.325093 0.000005 0.000000 -0.000000 0.000003 0.000001 0.000000 0.000005 0.000001 -0.000000 -0.038000 -0.085200 0.016200 -0.000000 0.000000 -0.000001 -0.000000 0.000000 -0.000000 -1.486459 -0.248174 3.380685 -32.808547 -1.108069 -17.123761 36.672693 -1.215403 12.360826 0.000002 -0.000004 -0.000003 0.000000 0.000000 -0.000001 0.000005 -0.000001 -0.000002 0.038000 -0.085200 0.016200 -0.000001 0.000001 0.000002 
0.008409 0.282351 -0.032174 -4.263260 -15.749528 -28.134577 -0.000001 -0.000003 -0.000001 -0.000002 -0.000000 -0.000000 -0.000000 0.000001 -0.000002 -0.000000 0.000000 -0.000000 0.000924 0.155147 0.009274 6.674507 -0.034097 23.851594 0.019937 0.078966 0.057518 -6.399894 4.158861 32.662279 0.177024 -0.020465 -0.095062 -26.021060 14.364496 -66.810896 -37.503309 12.024677 -94.470211 0.000001 0.000004 -0.000003 0.021770 -0.038291 0.012954 -0.000004 -0.000002 -0.000002 -0.000006 0.000001 0.000003 0.000001 -0.000000 0.000008 -0.000002 0.000000 -0.000001 -0.009090 -0.002348 -0.024223 -0.000005 0.000001 0.000004 0.000000 -0.000000 0.000005 -0.000002 0.000000 -0.000002 0.032823 -0.025104 0.012281 -0.000002 -0.000000 0.000002 -0.000001 0.000002 -0.000007 -0.000001 -0.000002 0.000003 -0.000000 -0.000002 0.000004 0.039230 -0.011402 0.008390 -0.000003 -0.000004 -0.000001 0.000003 0.000000 -0.000000 -0.000000 0.000006 0.000003 -0.000003 -0.000002 0.000003 0.043417 0.002450 0.002889 -0.000001 -0.000000 -0.000002 -0.000004 -0.000001 -0.000000 0.000001 0.000004 -0.000001 -0.000001 0.000001 -0.000000 -0.016662 0.078957 0.057696 -9.529238 5.972833 -31.801853 -0.176972 -0.020537 -0.095144 8.245752 -11.734938 64.655800 -41.001287 -19.480026 97.967883 -0.000001 0.000001 0.000000 -0.021773 -0.038278 0.012988 -0.000000 -0.000000 -0.000005 -0.000001 -0.000001 -0.000001 -0.000006 -0.000003 -0.000008 -0.000001 0.000003 0.000003 0.009113 -0.002381 -0.024211 0.000002 0.000000 -0.000001 0.000000 -0.000001 0.000004 -0.000001 -0.000004 0.000003 -0.032828 -0.025095 0.012286 0.000003 0.000001 -0.000003 0.000003 0.000001 -0.000005 -0.000000 0.000001 0.000001 -0.000005 0.000003 -0.000004 -0.039192 -0.011488 0.008390 0.000002 0.000002 -0.000002 0.000002 0.000003 -0.000003 -0.000002 -0.000003 0.000003 -0.000004 -0.000003 -0.000000 -0.043421 0.002443 0.002845 0.000001 0.000002 -0.000003 -0.000006 0.000003 -0.000001 -0.000005 -0.000003 -0.000003 -0.000002 0.000000 -0.000001 0.000000 0.000000 0.000000 -1.512056 -0.250142 2.155656 -12.002072 1.752722 24.523434 52.767040 -0.334776 3.381753 -0.000002 0.000001 -0.000001 0.000002 -0.000001 0.000000 0.000003 0.000001 0.000001 -0.038000 -0.085200 0.016200 0.000002 0.000000 -0.000000 0.000000 0.000000 0.000000 -1.487002 -0.248942 3.389959 -32.964938 -1.106031 -17.105748 36.673550 -1.213797 12.344209 -0.000003 -0.000004 0.000000 0.000003 -0.000001 -0.000001 0.000005 -0.000005 0.000000 0.038000 -0.085200 0.016200 -0.000003 -0.000004 -0.000000 
0.006287 0.290200 -0.028814 -1.303916 -13.782101 -23.422768 -0.000000 -0.000000 0.000002 0.000001 -0.000001 0.000000 -0.000001 -0.000002 0.000000 -0.000001 0.000001 -0.000002 0.000924 0.155148 0.009274 8.171403 -0.027427 19.493264 0.019937 0.078966 0.057518 -9.195658 3.438405 30.254559 0.177025 -0.020465 -0.095062 -19.128729 13.907286 -69.170118 -35.002138 4.483541 -85.531235 -0.000004 -0.000003 0.000004 0.021770 -0.038291 0.012954 0.000003 0.000002 0.000001 -0.000002 0.000001 -0.000000 -0.000000 -0.000004 0.000004 0.000002 0.000003 -0.000003 -0.009090 -0.002348 -0.024223 0.000003 -0.000003 -0.000003 0.000001 0.000003 0.000003 0.000001 -0.000001 -0.000002 0.032823 -0.025104 0.012281 0.000001 0.000003 0.000005 -0.000000 0.000000 -0.000007 -0.000006 0.000003 0.000001 -0.000000 -0.000003 0.000003 0.039230 -0.011402 0.008390 -0.000002 0.000002 0.000004 0.000002 0.000001 0.000001 -0.000002 0.000007 0.000003 0.000000 -0.000004 0.000002 0.043417 0.002450 0.002889 -0.000002 0.000002 -0.000002 -0.000003 -0.000001 -0.000002 0.000001 0.000002 0.000000 -0.000001 0.000001 -0.000001 -0.016662 0.078956 0.057696 -11.157842 5.176957 -27.172600 -0.176972 -0.020537 -0.095144 1.818433 -11.312218 62.966141 -43.875329 -9.218385 82.345901 -0.000000 0.000002 -0.000000 -0.021773 -0.038278 0.012988 -0.000003 -0.000001 0.000002 -0.000002 0.000004 0.000004 -0.000000 0.000003 -0.000004 0.000003 0.000003 0.000004 0.009114 -0.002381 -0.024212 0.000001 0.000001 0.000001 -0.000003 0.000001 0.000002 -0.000002 0.000003 0.000003 -0.032828 -0.025095 0.012286 -0.000002 0.000001 -0.000003 -0.000003 -0.000001 0.000002 -0.000003 0.000001 0.000001 0.000002 -0.000003 -0.000004 -0.039192 -0.011488 0.008390 -0.000003 0.000005 0.000003 0.000004 0.000001 0.000000 -0.000003 0.000003 -0.000000 -0.000002 0.000002 -0.000004 -0.043421 0.002443 0.002845 -0.000004 -0.000001 0.000002 -0.000001 0.000002 -0.000002 -0.000003 -0.000004 -0.000003 0.000000 -0.000003 0.000002 0.000000 0.000000 -0.000000 -1.471824 -0.152930 0.936505 -10.490990 1.436464 19.970175 49.061092 -0.641534 6.488827 -0.000002 0.000001 -0.000001 0.000002 0.000002 -0.000001 0.000002 0.000001 -0.000001 -0.038000 -0.085200 0.016200 0.000004 0.000001 -0.000001 0.000000 0.000000 -0.000000 -1.444717 -0.152205 2.170772 -28.689670 -0.676199 -11.056727 38.105188 0.235758 -2.378491 -0.000003 -0.000003 -0.000001 -0.000001 0.000000 0.000001 0.000007 -0.000001 0.000001 0.038000 -0.085200 0.016200 -0.000001 0.000000 -0.000004 
